<svg width="18" height="16" viewBox="0 0 18 16" fill="none" xmlns="http://www.w3.org/2000/svg">
<g clip-path="url(#clip0_4935_8356)">
<path d="M9.19375 8.67813C9.75625 8.83438 10.2781 9.09688 10.7406 9.45L15.7875 7.76875C16.05 7.68125 16.1906 7.39687 16.1031 7.1375L14.2156 1.475C14.1281 1.2125 13.8438 1.07187 13.5844 1.15937L11.675 1.79688L12.7094 4.90312L10.8125 5.53125L9.77812 2.425L7.85313 3.06562C7.59063 3.15313 7.45 3.4375 7.5375 3.69688L9.19375 8.67813ZM17.975 10.2L17.6562 9.25C17.5688 8.9875 17.2844 8.84688 17.025 8.93437L10.3531 11.1594C9.81562 10.4719 8.99062 10.0219 8.05625 10.0031L4.95 0.684375C4.8125 0.275 4.43125 0 4 0H0.5C0.225 0 0 0.225 0 0.5V1.5C0 1.775 0.225 2 0.5 2H3.27813L6.15938 10.6469C5.34375 11.2844 4.85625 12.3219 5.03438 13.475C5.225 14.7063 6.21875 15.7344 7.45 15.95C9.33125 16.2844 10.9594 14.8625 10.9937 13.0562L17.6594 10.8313C17.9187 10.7438 18.0625 10.4625 17.975 10.2ZM8 14.5C7.17188 14.5 6.5 13.8281 6.5 13C6.5 12.1719 7.17188 11.5 8 11.5C8.82812 11.5 9.5 12.1719 9.5 13C9.5 13.8281 8.82812 14.5 8 14.5Z" fill="white"/>
</g>
<defs>
<clipPath id="clip0_4935_8356">
<rect width="18" height="16" fill="white"/>
</clipPath>
</defs>
</svg>
